PathFileType	4	(X/Y/Z)	C:\Users\ebm\Documents\Erivelton\Erivelton2\wc4.trc
DataRate	CameraRate	NumFrames	NumMarkers	Units	OrigDataRate	OrigDataStartFrame	OrigNumFrames
150.00	150.00	      115	28	mm	150.00	155	      1232
Frame#	Time	IJ			PX			C7			T8			RAC			RAS			RPS			RAI			RPI			RLE			RME			RRS			RUS			R3M			R5M			LAC			LAS			LPS			LAI			LPI			LLE			LME			LRS			LUS			L3M			L5M			RW			LW			V_mid_elbow_r			V_mid_elbow_l			V_mid_wrist_r			V_mid_wrist_l			V_mid_trunk_low			V_mid_trunk_upp			
		X1	Y1	Z1	X2	Y2	Z2	X3	Y3	Z3	X4	Y4	Z4	X5	Y5	Z5	X6	Y6	Z6	X7	Y7	Z7	X8	Y8	Z8	X9	Y9	Z9	X10	Y10	Z10	X11	Y11	Z11	X12	Y12	Z12	X13	Y13	Z13	X14	Y14	Z14	X15	Y15	Z15	X16	Y16	Z16	X17	Y17	Z17	X18	Y18	Z18	X19	Y19	Z19	X20	Y20	Z20	X21	Y21	Z21	X22	Y22	Z22	X23	Y23	Z23	X24	Y24	Z24	X25	Y25	Z25	X26	Y26	Z26	X27	Y27	Z27	X28	Y28	Z28	

155	1.027																																																																																					
156	1.033																																																																																					
157	1.040																																																																																					
158	1.047																																																																																					
159	1.053																																																																																					
160	1.060																																																																																					
161	1.067																																																																																					
162	1.073																																																																																					
163	1.080																																																																																					
164	1.087																																																																																					
165	1.093																																																																																					
166	1.100																																																																																					
167	1.107																																																																																					
168	1.113																																																																																					
169	1.120																																																																																					
170	1.127																																																																																					
171	1.133																																																																																					
172	1.140																																																																																					
173	1.147																																																																																					
174	1.153																																																																																					
175	1.160																																																																																					
176	1.167																																																																																					
177	1.173																																																																																					
178	1.180																																																																																					
179	1.187																																																																																					
180	1.193																																																																																					
181	1.200																																																																																					
182	1.207																																																																																					
183	1.213																																																																																					
184	1.220																																																																																					
185	1.227																																																																																					
186	1.233																																																																																					
187	1.240																																																																																					
188	1.247																																																																																					
189	1.253																																																																																					
190	1.260																																																																																					
191	1.267																																																																																					
192	1.273																																																																																					
193	1.280																																																																																					
194	1.287																																																																																					
195	1.293																																																																																					
196	1.300																																																																																					
197	1.307																																																																																					
198	1.313																																																																																					
199	1.320																																																																																					
200	1.327																																																																																					
201	1.333																																																																																					
202	1.340																																																																																					
203	1.347																																																																																					
204	1.353																																																																																					
205	1.360																																																																																					
206	1.367																																																																																					
207	1.373																																																																																					
208	1.380																																																																																					
209	1.387																																																																																					
210	1.393																																																																																					
211	1.400																																																																																					
212	1.407																																																																																					
213	1.413																																																																																					
214	1.420																																																																																					
215	1.427																																																																																					
216	1.433																																																																																					
217	1.440																																																																																					
218	1.447																																																																																					
219	1.453																																																																																					
220	1.460																																																																																					
221	1.467																																																																																					
222	1.473																																																																																					
223	1.480																																																																																					
224	1.487																																																																																					
225	1.493																																																																																					
226	1.500																																																																																					
227	1.507																																																																																					
228	1.513																																																																																					
229	1.520																																																																																					
230	1.527																																																																																					
231	1.533																																																																																					
232	1.540																																																																																					
233	1.547																																																																																					
234	1.553																																																																																					
235	1.560																																																																																					
236	1.567																																																																																					
237	1.573																																																																																					
238	1.580																																																																																					
239	1.587																																																																																					
240	1.593																																																																																					
241	1.600																																																																																					
242	1.607																																																																																					
243	1.613																																																																																					
244	1.620																																																																																					
245	1.627																																																																																					
246	1.633																																																																																					
247	1.640																																																																																					
248	1.647																																																																																					
249	1.653																																																																																					
250	1.660																																																																																					
251	1.667																																																																																					
252	1.673																																																																																					
253	1.680																																																																																					
254	1.687																																																																																					
255	1.693																																																																																					
256	1.700																																																																																					
257	1.707																																																																																					
258	1.713																																																																																					
259	1.720																																																																																					
260	1.727																																																																																					
261	1.733																																																																																					
262	1.740																																																																																					
263	1.747																																																																																					
264	1.753																																																																																					
265	1.760																																																																																					
266	1.767																																																																																					
267	1.773																																																																																					
268	1.780													-1793.00256	1054.94067	140.11884																																																																						
269	1.787													-1787.37561	1055.62622	139.77193																																																																						
